# xmcd
#
# Track frame offsets:
#	150
#	18395
#	34021
#	51884
#	69097
#	85290
#	102372
#	119541
#	135439
#	149821
#	170944
#	191440
#	220857
#	241930
#	255889
#
# Disc length: 3895 seconds
#
# Revision: 1
# Processed by: cddbd v1.5.2PL0 Copyright (c) Steve Scherf et al.
# Submitted via: EasyCDDAExtractor 11.9.9.666
#
DISCID=d30f350f
DTITLE=Various Artist - Metal Hammer #168: Metal Blade: Los Angeles 1982
DYEAR=2007
DGENRE=Metal
TTITLE0=Slayer - Black Magic
TTITLE1=Unearth - Sanctity of Brothers
TTITLE2=As I Lay Dying - Through Struggle
TTITLE3=Amon Amarth - Cry of the Black Birds
TTITLE4=Job for a Cowboy - Embedded
TTITLE5=Six Feet Under - Doomsday
TTITLE6=Flotsam and Jetsam - Iron Tears
TTITLE7=Cannibal Corpse - Death Walking Terror
TTITLE8=Cellador - A Sign Far Beyond
TTITLE9=The Black Dahlia Murder - Miasma
TTITLE10=The Red Chord - Prey for Eyes
TTITLE11=Anterior - The Silent Divide
TTITLE12=Bolt Thrower - The Killchain
TTITLE13=Born From Pain - Behind Enemy Lines
TTITLE14=Primordial - The Golden Spiral
EXTD=
EXTT0=
EXTT1=
EXTT2=
EXTT3=
EXTT4=
EXTT5=
EXTT6=
EXTT7=
EXTT8=
EXTT9=
EXTT10=
EXTT11=
EXTT12=
EXTT13=
EXTT14=
PLAYORDER=
